<svg id="Ebene_1" data-name="Ebene 1" xmlns="http://www.w3.org/2000/svg" xmlns:xlink="http://www.w3.org/1999/xlink" viewBox="0 0 119.06 119.06"><defs><clipPath id="clip-path"><rect width="119.06" height="119.06" style="fill:none"/></clipPath></defs><g style="clip-path:url(#clip-path)"><path d="M99.48,49A38.14,38.14,0,0,0,79,43.65c-23.52,0-29.93,15.66-44.13,24.19a67.56,67.56,0,0,0,8,.46C72.26,68.3,74.92,52,99.48,49" style="fill:#003d72"/><path d="M115.34,49A56.91,56.91,0,0,0,2.83,54c10,5,16.8,12,32,13.82h0C49.06,59.31,55.47,43.65,79,43.65A38.14,38.14,0,0,1,99.48,49h0s5.09-.46,8-.46a67.56,67.56,0,0,1,7.85.44" style="fill:#9dbd15"/><path d="M99.48,49C74.92,52,72.26,68.3,42.86,68.3a67.44,67.44,0,0,1-8-.46,38.15,38.15,0,0,1-20.5,5.39A43,43,0,0,1,4,72a56.9,56.9,0,0,0,112.26-9.2C110.7,58.17,105.88,52.88,99.48,49" style="fill:#006eb7"/></g></svg>